<?xml version="1.0" standalone="no"?>
<!DOCTYPE svg PUBLIC "-//W3C//DTD SVG 20010904//EN"
 "http://www.w3.org/TR/2001/REC-SVG-20010904/DTD/svg10.dtd">
<svg version="1.0" xmlns="http://www.w3.org/2000/svg"
 width="260.000000pt" height="260.000000pt" viewBox="0 0 260.000000 260.000000"
 preserveAspectRatio="xMidYMid meet">
<metadata>
Created by potrace 1.14, written by Peter Selinger 2001-2017
</metadata>
<g transform="translate(0.000000,260.000000) scale(0.100000,-0.100000)"
fill="#000000" stroke="none">
<path d="M0 1300 l0 -1300 1300 0 1300 0 0 1300 0 1300 -1300 0 -1300 0 0
-1300z m2035 440 l0 -355 -405 0 -405 0 -3 291 c-2 225 1 294 10 302 7 5 159
31 338 57 179 26 345 51 370 55 25 4 56 7 70 7 l25 -2 0 -355z m-887 -59 c1
-157 -1 -288 -6 -293 -9 -9 -585 -13 -601 -4 -14 9 -16 492 -2 500 5 3 73 15
152 26 257 35 303 42 354 50 28 4 61 7 75 7 l25 -2 3 -284z m0 -664 c2 -251 0
-288 -13 -293 -8 -4 -118 8 -243 25 -125 18 -247 35 -272 38 -98 13 -90 -11
-90 266 0 134 3 247 7 250 4 4 142 6 307 5 l301 -3 3 -288z m876 287 c14 -5
16 -46 16 -354 0 -192 -4 -351 -9 -354 -5 -3 -100 8 -212 24 -112 16 -287 41
-388 55 -101 14 -190 30 -198 36 -18 16 -19 569 -1 587 9 9 110 12 394 12 210
0 389 -3 398 -6z"/>
</g>
</svg>
